<svg width="38.551270" height="47.567017" viewBox="0 0 38.5513 47.567" fill="none" xmlns="http://www.w3.org/2000/svg" xmlns:xlink="http://www.w3.org/1999/xlink">
	<desc>
			Created with Pixso.
	</desc>
	<defs/>
	<path id="Shape" d="M22.3633 10.468C21.4341 10.8373 20.4688 11.0306 19.4648 11.004C19.2739 11.0013 19.2007 10.9507 19.1899 10.7494C19.0342 8.84937 19.5435 7.11072 20.4595 5.47339C22.0249 2.67737 24.4062 0.950684 27.5005 0.192017C27.8818 0.0959473 28.2793 0.0653076 28.7153 0C28.7275 0.319946 28.7461 0.595947 28.7515 0.871948C28.8179 4.30139 26.6021 8.78528 22.3633 10.468ZM38.5513 34.936C38.4233 35.2974 38.2993 35.6853 38.1567 36.0667C36.9756 39.2654 35.1821 42.1053 33.0059 44.708C32.5859 45.2147 32.0967 45.6733 31.5913 46.0986C30.5928 46.944 29.4434 47.4547 28.1143 47.5013C27.1152 47.5333 26.1567 47.3521 25.2329 46.976C24.5635 46.7026 23.9048 46.3973 23.2261 46.1506C21.0234 45.3507 18.8325 45.4561 16.666 46.312C15.8848 46.6213 15.1143 46.9626 14.3179 47.2307C13.3955 47.54 12.438 47.6653 11.4634 47.4813C10.6128 47.3226 9.86865 46.9266 9.17822 46.416C8.3208 45.7814 7.60059 45.0081 6.92725 44.1893C3.73926 40.3014 1.59912 35.9053 0.565918 30.9813C0.120605 28.864 -0.0927734 26.7294 0.0380859 24.5653C0.191406 21.9707 0.793945 19.5 2.18066 17.2733C3.9209 14.4746 6.37549 12.6414 9.60449 11.8854C11.5474 11.428 13.4365 11.6146 15.2886 12.328C16.2632 12.7013 17.2407 13.0707 18.2192 13.4374C19.1206 13.776 20.0181 13.776 20.9209 13.4307C21.9194 13.0493 22.9194 12.6693 23.9219 12.2974C24.9502 11.9226 25.9956 11.616 27.0859 11.5293C28.7183 11.3973 30.3101 11.6094 31.8594 12.1281C34.0552 12.8627 35.8418 14.1627 37.1914 16.056C37.2275 16.108 37.2676 16.1653 37.2939 16.2067C33.8916 18.5786 31.9541 21.712 32.2354 25.9547C32.5195 30.2 34.8047 33.072 38.5513 34.936Z" clip-rule="evenodd" fill="#FF0043" fill-opacity="1.000000" fill-rule="evenodd"/>
</svg>
