<svg width="102.000000" height="43.000000" viewBox="0 0 102 43" fill="none" xmlns="http://www.w3.org/2000/svg" xmlns:xlink="http://www.w3.org/1999/xlink">
	<desc>
			Created with Pixso.
	</desc>
	<defs/>
	<path id="Path" d="M43 6.72L43 36.28C43 37.04 42.4 37.63 41.65 37.63L24.37 37.63C23.86 32.84 24.32 25.4 25.53 22.85C25.53 22.85 19.99 22.85 17.46 22.85C17.46 17.23 20.07 10.08 22.7 5.38L41.65 5.38C42.4 5.38 43 5.97 43 6.72Z" fill="#FFE7ED" fill-opacity="1.000000" fill-rule="nonzero"/>
	<path id="Path" d="M24.37 37.63L1.34 37.63C0.59 37.63 0 37.04 0 36.28L0 6.72C0 5.97 0.59 5.38 1.34 5.38L22.7 5.38C20.07 10.08 17.46 17.23 17.46 22.85C19.99 22.85 25.53 22.85 25.53 22.85C24.32 25.4 23.86 32.84 24.37 37.63Z" fill="#FFE7ED" fill-opacity="1.000000" fill-rule="nonzero"/>
	<path id="Path" d="M25.49 42.99C25.16 42.99 24.83 42.87 24.58 42.61C22.33 40.36 22.42 29.48 23.69 24.19L17.46 24.19C16.72 24.19 16.12 23.59 16.12 22.85C16.12 14.73 21.17 3.8 24.58 0.39C25.1 -0.13 25.95 -0.13 26.48 0.39C27 0.92 27 1.77 26.48 2.29C23.94 4.83 19.38 14.11 18.86 21.5L25.53 21.5C25.99 21.5 26.41 21.74 26.66 22.12C26.91 22.51 26.94 23 26.74 23.41C25.1 26.94 25.16 39.25 26.48 40.71C26.97 41.25 26.96 42.11 26.43 42.61C26.16 42.86 25.82 42.99 25.49 42.99Z" fill="#FF0043" fill-opacity="1.000000" fill-rule="nonzero"/>
	<path id="Path" d="M21.5 32.25C18.94 32.25 14.29 31.52 8.92 29.48C8.23 29.21 7.88 28.44 8.15 27.74C8.41 27.05 9.19 26.69 9.88 26.97C14.91 28.88 19.28 29.56 21.5 29.56C23.71 29.56 28.08 28.88 33.11 26.97C33.8 26.7 34.58 27.04 34.84 27.74C35.11 28.44 34.76 29.21 34.07 29.48C28.7 31.52 24.05 32.25 21.5 32.25Z" fill="#FF0043" fill-opacity="1.000000" fill-rule="nonzero"/>
	<path id="Path" d="M12.09 16.13C11.35 16.13 10.75 15.53 10.75 14.78L10.75 12.1C10.75 11.35 11.35 10.75 12.09 10.75C12.83 10.75 13.43 11.35 13.43 12.1L13.43 14.78C13.43 15.53 12.83 16.13 12.09 16.13Z" fill="#FF0043" fill-opacity="1.000000" fill-rule="nonzero"/>
	<path id="Path" d="M28.21 16.13C27.47 16.13 26.87 15.53 26.87 14.78L26.87 12.1C26.87 11.35 27.47 10.75 28.21 10.75C28.96 10.75 29.56 11.35 29.56 12.1L29.56 14.78C29.56 15.53 28.96 16.13 28.21 16.13Z" fill="#FF0043" fill-opacity="1.000000" fill-rule="nonzero"/>
	<path id="Path" d="M78.55 19.42L78.55 4.62L60.91 6.83L60.91 19.42L78.55 19.42Z" fill="#FF0043" fill-opacity="1.000000" fill-rule="nonzero"/>
	<path id="Path" d="M81.07 19.42L101.22 19.42L101.22 1.79L81.07 4.31L81.07 19.42Z" fill="#FF0043" fill-opacity="1.000000" fill-rule="nonzero"/>
	<path id="Path" d="M81.07 21.94L81.07 37.06L101.22 39.58L101.22 21.94L81.07 21.94Z" fill="#FF0043" fill-opacity="1.000000" fill-rule="nonzero"/>
	<path id="Path" d="M78.55 21.94L60.91 21.94L60.91 34.54L78.55 36.75L78.55 21.94Z" fill="#FF0043" fill-opacity="1.000000" fill-rule="nonzero"/>
</svg>
