<svg width="21.000000" height="20.000000" viewBox="0 0 21 20" fill="none" xmlns="http://www.w3.org/2000/svg" xmlns:xlink="http://www.w3.org/1999/xlink">
	<desc>
			Created with Pixso.
	</desc>
	<defs/>
	<path id="Path" d="M16.95 5.28C16.24 1.72 12.78 -0.59 9.22 0.12C6.62 0.64 4.59 2.67 4.07 5.28C1.54 5.57 -0.26 7.85 0.03 10.37C0.29 12.69 2.26 14.44 4.6 14.44L7.88 14.44C8.24 14.44 8.54 14.15 8.54 13.78C8.54 13.42 8.24 13.13 7.88 13.13L4.6 13.13C2.78 13.12 1.32 11.64 1.33 9.82C1.34 8.01 2.82 6.55 4.64 6.56C4.97 6.56 5.25 6.31 5.29 5.98C5.62 3.09 8.23 1.03 11.11 1.36C13.53 1.64 15.45 3.55 15.73 5.98C15.78 6.31 16.08 6.56 16.42 6.56C18.23 6.56 19.7 8.03 19.7 9.84C19.7 11.66 18.23 13.13 16.42 13.13L13.13 13.13C12.77 13.13 12.48 13.42 12.48 13.78C12.48 14.15 12.77 14.44 13.13 14.44L16.42 14.44C18.96 14.43 21 12.35 20.99 9.82C20.97 7.5 19.24 5.56 16.95 5.28Z" fill="#FF0043" fill-opacity="1.000000" fill-rule="nonzero"/>
	<path id="Path" d="M12.83 15.79L11.16 17.45L11.16 9.19C11.16 8.82 10.87 8.53 10.51 8.53C10.14 8.53 9.85 8.82 9.85 9.19L9.85 17.45L8.19 15.79C7.93 15.53 7.52 15.52 7.26 15.77C7 16.02 6.99 16.44 7.24 16.7C7.25 16.71 7.25 16.71 7.26 16.72L10.04 19.5C10.1 19.56 10.17 19.61 10.25 19.64C10.42 19.71 10.6 19.71 10.76 19.64C10.84 19.61 10.91 19.56 10.97 19.5L13.76 16.72C14.02 16.46 14.03 16.05 13.77 15.79C13.52 15.53 13.11 15.52 12.85 15.77C12.84 15.78 12.83 15.78 12.83 15.79Z" fill="#FF0043" fill-opacity="1.000000" fill-rule="nonzero"/>
</svg>
