<svg width="60.000000" height="60.000000" viewBox="0 0 60 60" fill="none" xmlns="http://www.w3.org/2000/svg" xmlns:xlink="http://www.w3.org/1999/xlink">
	<desc>
			Created with Pixso.
	</desc>
	<defs/>
	<path id="Path" d="M3.06 21.98C1.4 21.98 0.06 23.32 0.06 24.97L0.06 38.94C0.06 40.6 1.4 41.94 3.06 41.94C4.71 41.94 6.05 40.6 6.05 38.94L6.05 24.97C6.05 23.32 4.71 21.98 3.06 21.98Z" fill="#FF0043" fill-opacity="1.000000" fill-rule="nonzero"/>
	<path id="Path" d="M36.99 21.98C35.34 21.98 34 23.32 34 24.97L34 38.94C34 40.6 35.34 41.94 36.99 41.94C38.64 41.94 39.98 40.6 39.98 38.94L39.98 24.97C39.98 23.32 38.64 21.98 36.99 21.98Z" fill="#FF0043" fill-opacity="1.000000" fill-rule="nonzero"/>
	<path id="Path" d="M31 21.98L9.05 21.98C8.49 21.98 8.05 22.42 8.05 22.97L8.05 38.94C8.05 41.31 9.72 43.36 12.04 43.83L12.04 50.92C12.04 52.57 13.38 53.91 15.03 53.91C16.69 53.91 18.03 52.57 18.03 50.92L18.03 43.93L22.02 43.93L22.02 50.92C22.02 52.57 23.36 53.91 25.01 53.91C26.67 53.91 28.01 52.57 28.01 50.92L28.01 43.83C30.33 43.36 32 41.31 32 38.94L32 22.97C32 22.42 31.55 21.98 31 21.98Z" fill="#FF0043" fill-opacity="1.000000" fill-rule="nonzero"/>
	<path id="Path" d="M27.28 10.14L29.71 7.71C30.11 7.33 30.12 6.7 29.74 6.3C29.35 5.9 28.72 5.89 28.33 6.28C28.32 6.28 28.31 6.29 28.3 6.3L25.47 9.13C22 7.63 18.05 7.63 14.58 9.13L11.75 6.3C11.35 5.91 10.72 5.93 10.34 6.32C9.96 6.71 9.96 7.32 10.34 7.71L12.77 10.14C9.8 12.1 8.03 15.43 8.05 18.98C8.05 19.53 8.49 19.98 9.05 19.98L31 19.98C31.55 19.98 32 19.53 32 18.98C32.02 15.43 30.24 12.1 27.28 10.14Z" fill="#FF0043" fill-opacity="1.000000" fill-rule="nonzero"/>
	<circle id="Oval" cx="15.038574" cy="14.993652" r="0.998082" fill="#FAFAFA" fill-opacity="1.000000"/>
	<circle id="Oval" cx="25.019043" cy="14.993652" r="0.998082" fill="#FAFAFA" fill-opacity="1.000000"/>
</svg>
