<svg width="88.583984" height="19.160156" viewBox="0 0 88.584 19.1602" fill="none" xmlns="http://www.w3.org/2000/svg" xmlns:xlink="http://www.w3.org/1999/xlink">
	<desc>
			Created with Pixso.
	</desc>
	<defs/>
	<path id="Telegraph" d="M23.15 15L25.98 15L25.98 0L23.15 0L23.15 15ZM83.66 4.51Q82.88 4.85 82.27 5.58L82.27 0L79.45 0L79.45 15L82.27 15L82.27 7.49Q82.49 7.11 82.8 6.89Q83.31 6.53 84.07 6.53Q84.98 6.53 85.37 6.96Q85.76 7.4 85.76 8.31L85.76 15L88.58 15L88.58 8.23Q88.55 5.93 87.4 4.95Q86.55 4.23 85.09 4.23Q84.32 4.23 83.66 4.51ZM7.22 3.15L11.58 3.15L11.58 0.78L0 0.78L0 3.15L4.29 3.15L4.29 15L7.22 15L7.22 3.15ZM14.15 14.45Q15.38 15.19 17.06 15.19Q18.37 15.19 19.46 14.69Q20.33 14.28 20.91 13.62Q21.05 13.46 21.18 13.29L19.79 11.73Q19.43 12.19 18.97 12.47Q18.24 12.91 17.24 12.91Q16.46 12.91 15.89 12.58Q15.68 12.45 15.5 12.29Q15.32 12.13 15.18 11.94Q14.77 11.39 14.67 10.63L21.4 10.63L21.4 9.48Q21.4 6.97 20.16 5.6Q19.83 5.24 19.43 4.97Q18.34 4.23 16.74 4.23Q15.56 4.23 14.59 4.69Q14.38 4.79 14.17 4.91Q13.81 5.13 13.51 5.4Q12.85 5.99 12.43 6.85Q11.81 8.1 11.81 9.69L11.81 9.97Q11.81 11.73 12.62 12.97Q12.9 13.4 13.27 13.76Q13.68 14.16 14.15 14.45ZM30.26 14.45Q31.49 15.19 33.17 15.19Q34.49 15.19 35.57 14.69Q36.44 14.28 37.02 13.62Q37.17 13.46 37.29 13.29L35.9 11.73Q35.55 12.19 35.08 12.47Q34.35 12.91 33.35 12.91Q32.58 12.91 32 12.58Q31.79 12.45 31.61 12.29Q31.43 12.13 31.29 11.94Q30.89 11.39 30.79 10.63L37.51 10.63L37.51 9.48Q37.51 6.97 36.27 5.6Q35.94 5.24 35.55 4.97Q34.45 4.23 32.86 4.23Q31.68 4.23 30.71 4.69Q30.49 4.79 30.28 4.91Q29.93 5.13 29.62 5.4Q28.96 5.99 28.54 6.85Q27.92 8.1 27.92 9.69L27.92 9.97Q27.92 11.73 28.73 12.97Q29.01 13.4 29.38 13.76Q29.79 14.16 30.26 14.45ZM39.86 5.72Q38.71 7.2 38.71 9.63L38.71 9.75Q38.71 12.21 39.88 13.7Q40.47 14.44 41.23 14.81Q42 15.19 42.96 15.19Q43.94 15.19 44.69 14.77Q45.15 14.51 45.53 14.09L45.53 14.65Q45.53 15.6 45.07 16.18Q44.99 16.27 44.91 16.36Q44.86 16.41 44.8 16.45Q44.19 16.96 43.16 16.96Q42.52 16.96 41.97 16.75Q41.21 16.46 40.6 15.78L39.35 17.5Q39.92 18.23 41.02 18.69Q41.78 19.01 42.57 19.11Q42.92 19.16 43.29 19.16Q44.82 19.16 45.96 18.62Q46.7 18.27 47.22 17.72Q47.51 17.42 47.73 17.06Q47.77 17 47.8 16.95Q48.36 15.96 48.36 14.64L48.36 4.43L45.81 4.43L45.69 5.42Q45.37 5.03 44.96 4.76Q44.14 4.23 42.98 4.23Q41.9 4.23 41.05 4.69Q40.38 5.06 39.86 5.72ZM55.45 7Q55.89 7 56.47 7.08L56.51 4.36Q56.1 4.23 55.63 4.23Q55.05 4.23 54.56 4.45Q53.8 4.8 53.28 5.69L53.2 4.43L50.53 4.43L50.53 15L53.35 15L53.35 8.08Q53.48 7.8 53.69 7.59Q54.27 7 55.45 7ZM63.37 14.05Q63.46 14.61 63.66 15L66.51 15L66.51 14.83Q66.1 14.06 66.09 12.55L66.09 7.97Q66.09 6.68 65.49 5.81Q65.26 5.48 64.94 5.21Q64.91 5.19 64.89 5.17Q63.75 4.23 61.84 4.23Q60.55 4.23 59.52 4.68Q58.48 5.12 57.91 5.9Q57.56 6.4 57.43 6.94Q57.35 7.26 57.35 7.6L60.17 7.6Q60.17 7.21 60.35 6.93Q60.44 6.78 60.58 6.66Q60.98 6.32 61.69 6.32Q62.44 6.32 62.82 6.7Q62.85 6.73 62.88 6.76Q62.9 6.79 62.92 6.81Q63.26 7.24 63.26 7.93L63.26 8.54L61.96 8.54Q59.6 8.55 58.36 9.45Q57.87 9.8 57.57 10.27Q57.11 11.01 57.11 12.03Q57.11 12.72 57.38 13.29Q57.63 13.85 58.13 14.29Q58.38 14.51 58.66 14.67Q59.53 15.19 60.71 15.19Q61.69 15.19 62.45 14.78Q62.96 14.51 63.37 14.05ZM76.66 13.72Q77.77 12.25 77.77 9.81L77.77 9.66Q77.77 7.12 76.68 5.68Q76.25 5.1 75.67 4.75Q74.81 4.23 73.65 4.23Q72.75 4.23 72.04 4.59Q71.44 4.9 70.97 5.46L70.87 4.43L68.26 4.43L68.26 19.06L71.08 19.06L71.08 14.08Q71.46 14.51 71.94 14.78Q72.69 15.19 73.67 15.19Q74.67 15.19 75.45 14.78Q76.14 14.41 76.66 13.72ZM15.8 6.74Q16.2 6.52 16.73 6.52Q17.5 6.52 17.97 6.89Q18.05 6.96 18.12 7.03Q18.13 7.05 18.15 7.06Q18.61 7.57 18.63 8.48L18.63 8.71L14.7 8.71Q14.85 7.65 15.37 7.08Q15.56 6.88 15.8 6.74ZM31.91 6.74Q32.32 6.52 32.85 6.52Q33.61 6.52 34.08 6.89Q34.16 6.96 34.23 7.03Q34.25 7.05 34.26 7.06Q34.72 7.57 34.74 8.48L34.74 8.71L30.82 8.71Q30.96 7.65 31.48 7.08Q31.68 6.88 31.91 6.74ZM42.1 12.09Q41.53 11.27 41.53 9.84Q41.53 8.19 42.11 7.36Q42.4 6.95 42.79 6.74Q43.2 6.53 43.71 6.53Q44.48 6.53 45 6.9Q45.32 7.12 45.53 7.5L45.53 11.94Q45.33 12.28 45.04 12.51Q44.51 12.91 43.69 12.91Q43.17 12.91 42.77 12.69Q42.39 12.49 42.1 12.09ZM74.42 7.33Q74.95 8.13 74.95 9.6Q74.95 12.02 73.87 12.67Q73.47 12.91 72.92 12.91Q72.11 12.91 71.6 12.52Q71.28 12.27 71.08 11.87L71.08 7.54Q71.26 7.18 71.54 6.95Q72.05 6.53 72.91 6.53Q73.45 6.53 73.85 6.77Q74.19 6.96 74.42 7.33ZM62.15 12.9Q61.76 13.03 61.32 13.03Q60.73 13.03 60.37 12.74Q60.34 12.72 60.31 12.69Q60.15 12.54 60.06 12.36Q59.94 12.12 59.94 11.82L59.95 11.66Q59.99 11.2 60.22 10.89Q60.74 10.19 62.2 10.19L63.26 10.19L63.26 12.01Q63.21 12.09 63.16 12.17Q62.91 12.53 62.48 12.75Q62.32 12.84 62.15 12.9Z" fill="#FF0043" fill-opacity="1.000000" fill-rule="evenodd"/>
</svg>
